<svg width="16" height="16" viewBox="0 0 16 16" fill="none" xmlns="http://www.w3.org/2000/svg">
<g clip-path="url(#clip0_2_132)">
<path d="M11.2045 2.30298C11.7709 2.30298 12.308 2.4104 12.8159 2.62524C13.3237 2.84009 13.7631 3.1355 14.1342 3.51147C14.5053 3.88745 14.8032 4.32935 15.0278 4.83716C15.2426 5.33521 15.35 5.87231 15.35 6.44849C15.35 7.39575 14.9594 8.38696 14.1782 9.42212C13.3969 10.4573 12.5375 11.407 11.6 12.2712C10.6625 13.1355 9.80316 13.8508 9.02191 14.4172C8.24066 14.9836 7.85004 15.2668 7.85004 15.2668C7.85004 15.2668 7.45941 14.9934 6.67816 14.4465C5.89691 13.8997 5.03754 13.199 4.10004 12.3445C3.16254 11.49 2.30316 10.5403 1.52191 9.49536C0.740662 8.46021 0.350037 7.44458 0.350037 6.44849C0.350037 5.7356 0.457458 5.12036 0.672302 4.60278C0.896912 4.07544 1.19476 3.64331 1.56586 3.3064C1.93695 2.96948 2.3764 2.71802 2.88422 2.552C3.38226 2.38599 3.91937 2.30298 4.49554 2.30298C5.1889 2.30298 5.82611 2.45923 6.40717 2.77173C6.98822 3.08423 7.46918 3.49927 7.85004 4.01685C8.2309 3.49927 8.71185 3.08423 9.29291 2.77173C9.87396 2.45923 10.5112 2.30298 11.2045 2.30298Z" fill="#C3C3C3"/>
</g>
<defs>
<clipPath id="clip0_2_132">
<rect width="15.3" height="15" fill="white" transform="matrix(1 0 0 -1 0.200012 15.97)"/>
</clipPath>
</defs>
</svg>
