<svg width="15" height="21" viewBox="0 0 15 21" fill="none" xmlns="http://www.w3.org/2000/svg">
<path d="M9.58367 14.6281C9.55763 14.6151 9.52182 14.5891 9.47625 14.55C9.43068 14.5109 9.38186 14.4654 9.32977 14.4133C9.23863 14.3221 9.17679 14.231 9.14424 14.1399C9.11168 14.0487 9.10192 13.9315 9.11494 13.7883C9.12796 13.6321 9.17353 13.4954 9.25165 13.3782C9.32977 13.261 9.57716 12.9745 9.99381 12.5188L10.736 11.6986L1.65433 11.679L1.53715 11.6204C1.44601 11.5814 1.37114 11.5325 1.31255 11.474C1.25396 11.4154 1.19862 11.3405 1.14654 11.2494C1.10748 11.1712 1.0847 11.1126 1.07819 11.0736C1.07168 11.0345 1.06842 10.9629 1.06842 10.8587C1.06842 10.7546 1.07168 10.683 1.07819 10.6439C1.0847 10.6049 1.10097 10.5528 1.12701 10.4877C1.17909 10.3965 1.22792 10.3249 1.27349 10.2728C1.31906 10.2208 1.38742 10.1687 1.47856 10.1166L1.61527 10.0189H10.736L9.99381 9.17914C9.57716 8.72343 9.32977 8.44024 9.25165 8.32956C9.17353 8.21889 9.12796 8.07892 9.11494 7.90966C9.10192 7.77946 9.11168 7.66879 9.14424 7.57764C9.17679 7.4865 9.23863 7.38885 9.32977 7.28469C9.42092 7.18053 9.5088 7.11217 9.59343 7.07962C9.67807 7.04707 9.78548 7.03079 9.91569 7.03079C10.0719 7.04381 10.2217 7.11543 10.3649 7.24563C10.5081 7.37583 10.9703 7.87711 11.7515 8.74947C12.5718 9.63484 13.0438 10.1589 13.1675 10.3217C13.2912 10.4844 13.353 10.6634 13.353 10.8587C13.353 11.041 13.2944 11.2103 13.1773 11.3665C13.0601 11.5228 12.5913 12.0501 11.7711 12.9485C11.1982 13.5735 10.8043 13.9966 10.5895 14.218C10.3747 14.4393 10.2477 14.563 10.2086 14.5891C10.1305 14.6281 10.0264 14.6509 9.89616 14.6574C9.76595 14.6639 9.66179 14.6542 9.58367 14.6281Z" fill="#007A4B"/>
</svg>
