<svg width="14" height="19" viewBox="0 0 14 19" fill="none" xmlns="http://www.w3.org/2000/svg">
<path d="M3.69415 13.9528C3.68243 13.9528 3.67072 13.9469 3.659 13.9352C3.64728 13.9235 3.63556 13.9059 3.62384 13.8824L3.58868 13.8473V9.83948C3.58868 8.74963 3.58868 7.80627 3.58868 7.0094C3.58868 6.21252 3.58868 5.80237 3.58868 5.77893C3.6004 5.73205 3.62091 5.69104 3.65021 5.65588C3.6795 5.62073 3.71173 5.60315 3.74689 5.60315C3.78204 5.59143 3.96954 5.68518 4.30939 5.8844C4.64923 6.08362 5.64532 6.65784 7.29767 7.60705C8.25861 8.15784 9.08478 8.63538 9.77618 9.03967C10.4676 9.44397 10.8192 9.65198 10.8309 9.6637C10.866 9.69885 10.8836 9.73987 10.8836 9.78674C10.8836 9.83362 10.866 9.87463 10.8309 9.90979C10.8192 9.92151 10.4442 10.1383 9.70587 10.5602C8.97931 10.9938 8.17658 11.4625 7.29767 11.9664C6.41876 12.4703 5.61603 12.9332 4.88947 13.3551C4.1629 13.7653 3.79376 13.9703 3.78204 13.9703C3.77032 13.9703 3.75568 13.9703 3.7381 13.9703C3.72052 13.9703 3.70587 13.9645 3.69415 13.9528Z" fill="#222222"/>
</svg>
