<svg width="72" height="15" viewBox="0 0 72 15" fill="none" xmlns="http://www.w3.org/2000/svg">
<g clip-path="url(#clip0_2_141)">
<path d="M7.195 11.4278L11.6357 14.6599L9.94934 9.39014L14.39 6.27043H8.99375L7.195 0.874179L5.39625 6.27043H0L4.44066 9.39014L2.75434 14.6599L7.195 11.4278Z" fill="#C3C3C3"/>
<path d="M21.585 11.4278L26.0257 14.6599L24.3394 9.39014L28.78 6.27043H23.3838L21.585 0.874179L19.7863 6.27043H14.39L18.8307 9.39014L17.1444 14.6599L21.585 11.4278Z" fill="#C3C3C3"/>
<path d="M35.975 11.4278L40.4157 14.6599L38.7293 9.39014L43.17 6.27043H37.7737L35.975 0.874179L34.1762 6.27043H28.78L33.2207 9.39014L31.5343 14.6599L35.975 11.4278Z" fill="#C3C3C3"/>
<path d="M50.365 11.4278L54.8057 14.6599L53.1193 9.39014L57.56 6.27043H52.1638L50.365 0.874179L48.5663 6.27043H43.17L47.6107 9.39014L45.9243 14.6599L50.365 11.4278Z" fill="#C3C3C3"/>
<path d="M64.755 11.4278L69.1957 14.6599L67.5093 9.39014L71.95 6.27043H66.5537L64.755 0.874179L62.9562 6.27043H57.56L62.0007 9.39014L60.3143 14.6599L64.755 11.4278Z" fill="#C3C3C3"/>
</g>
<defs>
<clipPath id="clip0_2_141">
<rect width="71.95" height="14.39" fill="white" transform="matrix(1 0 0 -1 0 14.6599)"/>
</clipPath>
</defs>
</svg>
