<svg width="174" height="114" viewBox="0 0 174 114" fill="none" xmlns="http://www.w3.org/2000/svg">
<path d="M141.891 54.4648C142.079 54.5328 142.216 54.5668 142.356 54.5806C143.066 54.6509 143.63 54.9416 143.777 55.6895C143.932 56.4826 143.594 57.2301 142.869 57.4059C141.689 57.6917 141.683 58.4418 141.709 59.3557C141.728 60.0016 141.639 60.6505 141.6 61.2982C141.56 61.9651 141.821 62.3886 142.535 62.4486C143.419 62.5229 144.046 62.8869 144.138 63.8635C144.222 64.7555 143.809 65.4291 142.889 65.8702C140.807 66.8691 138.087 65.6116 137.442 63.3677C137.004 61.8457 137.104 60.2889 137.09 58.7381C137.079 57.5385 136.74 57.3153 135.602 57.7711C135.002 58.0116 134.438 57.8869 133.884 57.6208C133.289 57.3348 132.673 57.1452 132 57.2236C131.703 57.2583 131.428 57.3534 131.346 57.6705C131.247 58.0504 131.519 58.2596 131.803 58.391C132.624 58.7709 133.452 59.1359 134.289 59.4774C135.347 59.9089 136.259 60.4893 136.638 61.6409C137.134 63.1489 136.475 64.7935 134.951 65.5845C132.595 66.8079 130.248 66.5252 127.965 65.3295C127.375 65.0201 127.141 64.4606 127.213 63.6901C125.916 65.8109 123.549 66.8225 121.228 66.3316C118.995 65.8593 117.31 63.93 117.028 61.5582C116.748 59.2153 116.991 57.0576 118.916 55.3726C120.638 53.8664 123.791 53.8089 125.511 55.3097C127.331 56.8979 126.922 59.57 124.697 60.6063C123.538 61.1456 122.293 61.1976 121.045 61.2332C120.853 61.2387 120.655 61.1316 120.468 61.2588C120.695 62.4773 122.185 63.3271 123.47 62.9699C123.997 62.8237 124.451 62.543 124.881 62.2114C126.239 61.1626 126.696 61.2739 127.402 62.8361C128.043 62.1799 128.784 62.2893 129.525 62.5874C130.267 62.8858 131.014 63.1253 131.827 63.0873C132.153 63.072 132.478 63.0115 132.588 62.6649C132.705 62.2955 132.411 62.0914 132.153 61.9231C131.602 61.5637 130.962 61.4079 130.348 61.1958C128.342 60.5024 127.377 59.1849 127.566 57.3805C127.731 55.7995 129.32 54.434 131.194 54.2262C132.543 54.0766 133.841 54.2632 135.111 54.717C136.258 55.127 136.971 54.6904 137.114 53.5007C137.278 52.1356 137.997 51.3354 139.129 51.2596C140.151 51.1911 141.215 52.0727 141.553 53.2757C141.66 53.6548 141.747 54.0394 141.891 54.4648ZM121.883 58.5296C122.133 58.4982 122.394 58.5003 122.631 58.4271C122.96 58.3256 123.285 58.1495 123.276 57.7465C123.268 57.3362 122.918 57.1966 122.593 57.1021C121.686 56.8381 120.775 57.4129 120.607 58.3491C120.948 58.6061 121.354 58.4991 121.883 58.5296Z" fill="white"/>
<path d="M50.119 54.0254C50.1055 53.611 50.0446 53.3514 49.5943 53.3583C47.7452 53.3866 46.711 54.1589 46.1917 55.9343C45.8523 57.0948 45.3337 57.5269 44.12 57.5514C42.6763 57.5807 41.2316 57.5575 39.7873 57.564C39.08 57.5672 38.6182 57.2469 38.5995 56.5301C38.58 55.7852 39.1065 55.4954 39.7693 55.4625C40.504 55.4261 41.2416 55.452 41.9775 55.4333C42.462 55.4209 42.9315 55.3015 42.9296 54.7062C42.9278 54.1122 42.4549 53.9886 41.9732 53.9797C40.954 53.9608 39.9343 53.9659 38.9148 53.9617C38.54 53.9602 38.1748 53.9214 37.8858 53.6483C37.5455 53.3266 37.4311 52.9397 37.5926 52.4919C37.7592 52.0302 38.1173 51.8497 38.5859 51.8499C39.8887 51.8504 41.1914 51.8529 42.4941 51.8541C42.7206 51.8543 42.9474 51.8587 43.1737 51.8497C43.6816 51.8297 44.0884 51.6294 44.1073 51.0754C44.1275 50.4853 43.6592 50.3089 43.1865 50.2978C41.7995 50.265 40.4114 50.2795 39.0238 50.2714C38.7412 50.2697 38.4502 50.2894 38.178 50.2305C37.6456 50.1153 37.356 49.755 37.3301 49.2085C37.304 48.6573 37.5554 48.2728 38.0974 48.143C38.4522 48.0581 38.8249 48.0043 39.1889 48.0077C41.2269 48.0271 43.2672 47.9287 45.3023 48.1091C45.8262 48.1555 46.2889 48.0528 46.7477 47.7591C48.312 46.7574 50.1085 46.644 51.8884 46.5324C54.1581 46.3901 56.4285 46.3817 58.5693 47.3098C59.9028 47.888 61.0414 48.7057 61.4412 50.22C61.9389 52.1052 60.3555 53.8572 58.4428 53.5473C57.6894 53.4252 56.932 53.3263 56.1815 53.1895C55.5085 53.0668 55.2687 53.3146 55.274 53.9977C55.2946 56.6836 55.275 59.3697 55.2704 62.0557C55.2689 62.9664 55.1577 63.8649 54.8532 64.7234C54.4463 65.8705 53.766 66.2846 52.5007 66.2189C51.471 66.1655 50.8781 65.6407 50.5968 64.4976C50.3803 63.6178 50.2743 62.7182 50.2544 61.8148C50.1976 59.2435 50.1642 56.6715 50.119 54.0254Z" fill="white"/>
<path d="M106.303 49.7329C107.197 50.4085 107.656 51.3289 108.102 52.2389C109.13 54.3375 110.116 56.457 111.183 58.7047C111.603 56.3721 111.674 54.1533 111.914 51.9543C112.018 50.9989 112.13 50.0469 112.367 49.1175C112.663 47.9527 113.495 47.3032 114.546 47.3538C115.615 47.4052 116.429 48.1895 116.636 49.3543C116.802 50.287 116.667 51.2227 116.592 52.1431C116.276 55.9934 115.918 59.842 115.254 63.6521C114.775 66.3956 112.639 67.1438 110.497 65.3191C108.637 63.7344 107.577 61.604 106.575 59.4417C106.386 59.0324 106.215 58.6145 105.944 57.9897C105.689 59.7572 105.472 61.3211 105.235 62.882C105.146 63.4665 105.05 64.0546 104.891 64.6227C104.57 65.7727 103.922 66.2702 102.907 66.2177C102.011 66.1714 101.428 65.6131 101.235 64.4874C100.93 62.7006 100.826 60.8927 100.948 59.0851C101.108 56.7242 100.978 54.3361 101.58 52.0136C102.01 50.3532 102.942 49.3952 104.298 49.2504C104.998 49.1757 105.643 49.3574 106.303 49.7329Z" fill="white"/>
<path d="M68.5729 36.5238C69.5603 37.2811 70.5585 37.9251 71.3316 38.8509C73.3432 41.2599 72.659 45.1499 69.9611 46.5232C68.8146 47.1067 67.6186 47.2131 66.4489 46.6535C65.905 46.3933 65.5468 46.5183 65.1647 46.8773C64.7328 47.283 64.2909 47.6781 63.8551 48.0798C63.245 48.6423 62.6673 48.6519 61.9632 48.156C59.8995 46.7025 57.6181 45.7432 55.0968 45.4247C53.2647 45.1933 51.4221 45.2287 49.5905 45.3979C48.8167 45.4694 48.45 45.2083 48.3955 44.4829C48.3482 43.8538 48.0362 43.2295 48.3192 42.5555C48.8668 42.5674 49.0355 43.01 49.2256 43.3515C49.5291 43.8969 49.9493 44.1009 50.5511 44.039C54.6185 43.6207 58.42 44.4243 61.9552 46.4924C62.8123 46.9938 64.3552 46.2832 64.6151 45.3132C64.7165 44.9346 63.882 43.7438 63.4011 43.6544C62.4391 43.4754 61.5655 43.1021 60.7432 42.5845C60.2035 42.2448 59.616 42.11 58.9688 42.1153C57.0446 42.1313 55.1824 41.4841 53.2371 41.6039C51.8829 41.6874 50.5558 42.0093 49.187 41.9592C46.6777 41.8674 45.3536 40.2375 45.8246 37.7804C46.0549 36.5791 46.8558 35.9139 47.9447 35.5921C48.5957 35.3996 48.9939 35.0561 49.3151 34.4681C50.6485 32.0264 53.535 30.9678 55.5619 31.7753C56.014 31.9554 56.3142 31.6938 56.6478 31.4859C58.6425 30.2431 60.7604 29.5901 63.1061 30.2753C65.7151 31.0373 67.4835 32.6685 68.1601 35.3573C68.2568 35.7415 68.3289 36.1288 68.5729 36.5238ZM47.2103 38.2332C47.0698 39.2895 47.4835 40.2113 48.3634 40.4071C50.1374 40.8018 51.8572 40.2877 53.5882 40.0375C53.6082 39.3259 52.9388 38.8372 53.3264 38.1068C54.1319 38.4724 54.6251 39.1578 55.2841 39.6172C57.3 41.0226 59.194 41.2172 60.9934 39.1569C61.1782 38.9453 61.3713 38.7256 61.6026 38.5732C62.0988 38.2464 62.3975 38.4197 62.4138 39.0066C62.4297 39.5775 62.157 40.049 61.848 40.4848C61.5454 40.9115 61.6786 41.2062 62.0103 41.5102C62.8527 42.2823 64.2998 42.4006 65.2501 41.7975C65.5976 41.577 65.9812 40.9794 66.385 41.4444C66.7369 41.8497 66.1657 42.237 65.9418 42.6062C65.8544 42.7503 65.7427 42.8807 65.6348 43.0114C65.429 43.2608 65.4455 43.5187 65.5633 43.8033C66.3523 45.7094 68.596 46.1449 70.0275 44.6655C71.5566 43.0851 71.4548 40.8169 69.7793 39.1366C68.6625 38.0166 68.4036 37.9771 67.0106 38.6988C66.9454 38.7326 66.8511 38.7104 66.7824 38.7138C66.4625 38.4297 66.6242 38.114 66.7096 37.8351C67.1264 36.4747 66.7101 35.2889 66.0037 34.1417C64.48 31.6668 59.7658 29.8728 56.9773 33.5159C56.8058 33.74 56.6361 33.9686 56.4398 34.1702C56.0036 34.6183 55.5801 34.6734 55.3778 33.983C55.1088 33.0653 54.3995 32.9639 53.6389 32.9905C53.1018 33.0092 52.5989 33.204 52.1171 33.4689C50.5448 34.3331 50.1415 35.8476 49.8538 37.4339C49.7914 37.778 49.8524 38.1855 49.4006 38.3207C49.1162 38.1845 49.097 37.9115 48.9991 37.6826C48.6583 36.886 48.1 36.8149 47.5542 37.511C47.419 37.6833 47.3532 37.91 47.2103 38.2332Z" fill="white"/>
<path d="M62.7674 66.3685C61.9398 66.2095 61.2042 66.0145 60.568 65.5561C59.4072 64.7197 58.7015 63.6522 58.9644 62.1641C59.1899 60.8875 60.3439 59.9529 61.8648 59.6658C63.0965 59.4333 64.3268 59.4944 65.5674 59.6593C65.5037 58.7521 65.0732 58.3234 64.1825 58.2282C63.4688 58.1519 62.7767 58.2835 62.0858 58.4551C60.4568 58.8598 59.4852 58.4681 59.165 57.299C58.8542 56.164 59.585 55.0517 61.0189 54.5883C62.5731 54.0859 64.1679 53.8849 65.7818 54.2706C67.8957 54.776 69.3256 56.0262 69.7239 58.2141C70.1051 60.3077 70.1799 62.4223 69.734 64.5237C69.3868 66.16 68.2193 66.667 66.7714 65.818C66.4682 65.6402 66.2147 65.4539 65.8505 65.7008C64.941 66.3174 63.9069 66.4219 62.7674 66.3685ZM64.5667 61.8019C64.3406 61.7996 64.1136 61.7832 63.8886 61.7979C63.3509 61.8331 62.9409 62.062 62.9127 62.6485C62.8827 63.2718 63.359 63.4516 63.8545 63.5331C64.0971 63.573 64.3649 63.5416 64.6074 63.484C65.0637 63.3757 65.4984 63.1845 65.5214 62.6314C65.5437 62.0967 65.133 61.9319 64.5667 61.8019Z" fill="white"/>
<path d="M113.197 71.3953C112.338 70.5803 111.575 69.7652 111.053 68.7399C119.275 73.9052 127.322 73.8219 135.295 68.0796C135.036 69.0571 134.427 69.7636 133.801 70.4243C133.271 70.9843 133.362 71.2933 133.919 71.7755C135.842 73.4399 137.02 75.5001 136.991 78.1184C136.981 78.9325 136.727 79.6716 136.184 80.2983C134.773 81.9239 132.644 81.6909 131.63 79.7965C131.236 79.0612 131.105 78.2492 130.961 77.4434C130.783 76.4365 130.457 75.4782 130.087 74.5274C129.783 73.746 129.37 73.5337 128.523 73.8396C124.493 75.2963 120.485 75.1956 116.53 73.5075C115.322 72.9917 114.225 72.3054 113.197 71.3953Z" fill="white"/>
<path d="M98.7344 61.6826C99.543 62.5184 99.5709 63.3442 98.8815 64.3006C96.8518 67.1164 92.2376 67.0843 90.2218 64.2676C88.666 62.0936 88.4641 57.5103 91.0133 55.3967C92.6767 54.0177 95.5336 53.7965 97.2475 55.114C98.2255 55.8657 98.8012 56.8583 98.6457 58.1187C98.4847 59.4235 97.6382 60.2379 96.4611 60.7062C95.396 61.1299 94.262 61.2017 93.1272 61.2331C92.94 61.2383 92.7359 61.1222 92.5674 61.2959C92.8952 62.5639 94.4018 63.3499 95.705 62.939C96.2843 62.7563 96.7669 62.4233 97.2183 62.0265C97.6341 61.661 98.0832 61.3655 98.7344 61.6826ZM95.3178 57.9771C95.5256 57.5572 95.2654 57.356 94.9424 57.1937C94.0394 56.7399 92.9439 57.3557 92.7918 58.46C93.6467 58.5065 94.5089 58.7472 95.3178 57.9771Z" fill="white"/>
<path d="M75.3176 54.1882C76.5605 54.1754 77.7009 54.3344 78.7818 54.8113C79.2633 55.0238 79.6953 55.3106 79.8247 55.8499C79.9719 56.4638 80.05 57.1159 79.5179 57.5934C79.0233 58.0372 78.4126 57.9756 77.8337 57.759C77.1202 57.4919 76.4357 57.1375 75.6356 57.2109C75.3106 57.2407 74.9837 57.2845 74.8717 57.6298C74.7382 58.0412 75.0402 58.2751 75.3515 58.4186C76.2496 58.8325 77.1606 59.219 78.071 59.6058C79.3384 60.1443 80.1944 60.998 80.2495 62.4511C80.3073 63.9786 79.5708 65.0711 78.2342 65.7003C75.9085 66.7951 73.605 66.5114 71.3991 65.3269C70.6075 64.9018 70.4054 63.9326 70.7887 63.0939C71.0938 62.4263 71.7559 62.1818 72.6836 62.4575C73.493 62.698 74.2552 63.1121 75.1332 63.0821C75.4995 63.0696 75.9314 63.1173 76.0504 62.6626C76.1644 62.227 75.827 61.978 75.4845 61.8257C74.9695 61.5968 74.4369 61.4036 73.9025 61.2226C71.901 60.5444 70.7853 59.1033 71.0084 57.4648C71.2536 55.6638 72.8462 54.3392 74.9071 54.2216C75.0201 54.2152 75.1328 54.2047 75.3176 54.1882Z" fill="white"/>
<path d="M81.3643 57.5671C80.47 57.3262 79.9542 56.8487 79.9942 55.9279C80.0308 55.0852 80.5982 54.7592 81.3205 54.6351C81.7299 54.5648 81.9113 54.3675 81.9267 53.9657C81.9364 53.7125 81.9901 53.4614 82.0107 53.2083C82.0845 52.3057 82.5039 51.6508 83.3868 51.3657C84.2958 51.0721 85.0542 51.364 85.6844 52.0434C86.1861 52.5844 86.3989 53.258 86.505 53.9627C86.5635 54.3518 86.6841 54.5659 87.1277 54.5894C87.8655 54.6284 88.4499 54.9288 88.5737 55.7493C88.6913 56.5287 88.2923 57.2877 87.4426 57.5063C86.6035 57.7221 86.498 58.1938 86.5268 58.9166C86.5536 59.5899 86.4693 60.2689 86.4139 60.9437C86.3329 61.9282 86.5705 62.286 87.5431 62.4595C88.2679 62.5889 88.8138 62.8327 88.965 63.6634C89.1228 64.5298 88.8157 65.1557 88.1423 65.6424C86.4122 66.8929 83.3787 66.003 82.5017 63.9827C82.1842 63.2516 82.0245 62.4803 82.0109 61.6775C81.9924 60.5762 81.9495 59.4754 81.9253 58.3741C81.9172 58.0045 81.8238 57.7037 81.3643 57.5671Z" fill="white"/>
<path d="M81.0814 69.7075C81.6975 69.6836 82.2337 69.7102 82.7539 69.8533C83.5746 70.0791 84.0927 71.0348 83.6056 71.706C83.0786 72.4322 83.2224 72.9673 83.6574 73.5866C83.7312 73.6918 83.7394 73.843 83.7896 74.0124C83.3124 74.2624 82.9635 74.2013 82.7001 73.7589C82.5416 73.4927 82.3908 73.222 82.2284 72.9583C82.1022 72.7534 81.928 72.6014 81.6705 72.6857C81.4387 72.7615 81.4454 72.9829 81.4352 73.1802C81.4265 73.3489 81.4289 73.5185 81.4134 73.6865C81.3863 73.9792 81.2402 74.1571 80.9243 74.1446C80.6525 74.1338 80.5024 73.9787 80.5008 73.7173C80.4938 72.5351 80.4935 71.3527 80.501 70.1705C80.503 69.8562 80.7217 69.7406 81.0814 69.7075ZM82.5505 71.6309C82.8339 71.2409 82.8304 70.88 82.3714 70.6502C82.1194 70.524 81.787 70.484 81.578 70.722C81.3331 71.001 81.3439 71.4024 81.528 71.6754C81.7611 72.0211 82.1314 71.8534 82.5505 71.6309Z" fill="white"/>
<path d="M35.7435 53.5872C36.4458 53.7976 36.7677 54.2373 36.6475 54.8778C36.5219 55.5468 36.0382 55.8601 35.3593 55.8619C34.7669 55.8634 34.1736 55.8793 33.582 55.8559C32.8279 55.826 32.3091 55.3226 32.3117 54.6646C32.3144 54.0235 32.7816 53.5889 33.5549 53.5656C34.2593 53.5444 34.9652 53.5702 35.7435 53.5872Z" fill="white"/>
<path d="M77.4274 70.5938C77.4785 70.1993 77.2975 69.7076 77.8831 69.7124C78.437 69.7171 78.3522 70.1824 78.3565 70.5321C78.3683 71.4917 78.358 72.4515 78.3572 73.4112C78.3568 73.9618 78.1945 74.3268 77.549 74.0685C77.3693 73.9966 77.232 74.0332 77.067 74.0903C76.4423 74.3066 75.8692 74.2229 75.4923 73.6446C75.043 72.9554 75.006 72.2071 75.3989 71.4741C75.7556 70.8087 76.3664 70.7365 77.0115 70.9147C77.3093 70.9969 77.4408 70.9913 77.4274 70.5938ZM76.5911 71.6588C75.9829 71.9636 76.1026 72.4869 76.2216 72.9824C76.2853 73.2474 76.5041 73.4203 76.7991 73.3674C77.1998 73.2956 77.3584 72.962 77.3808 72.6233C77.4114 72.1596 77.3372 71.6971 76.5911 71.6588Z" fill="white"/>
<path d="M64.8595 70.4392C64.8424 69.9522 65.0111 69.7076 65.4429 69.706C66.0362 69.7039 66.6296 69.7052 67.2228 69.7123C67.5137 69.7158 67.7198 69.8323 67.7072 70.1625C67.6963 70.4492 67.4937 70.5447 67.2505 70.5621C66.9408 70.5843 66.6295 70.5837 66.319 70.5938C66.0258 70.6033 65.838 70.7202 65.8246 71.0447C65.8097 71.4048 65.9915 71.5587 66.3322 71.5693C66.5863 71.5772 66.8412 71.5786 67.0941 71.601C67.3738 71.6259 67.594 71.7377 67.5683 72.0698C67.547 72.344 67.3605 72.452 67.1078 72.4686C66.9669 72.4778 66.8235 72.4952 66.6846 72.4796C66.0358 72.407 65.7363 72.6506 65.7995 73.3375C65.8308 73.6786 65.8984 74.1527 65.3289 74.1385C64.7759 74.1248 64.8685 73.6619 64.8637 73.3129C64.851 72.382 64.8587 71.4509 64.8595 70.4392Z" fill="white"/>
<path d="M51.4299 73.4151C51.4297 72.3502 51.4405 71.3654 51.4269 70.3808C51.4206 69.9273 51.594 69.6935 52.0655 69.7014C52.6008 69.7103 53.1364 69.6992 53.6716 69.7089C53.9349 69.7136 54.1983 69.7571 54.2183 70.0993C54.2415 70.4949 53.9479 70.5452 53.6564 70.5694C53.404 70.5904 53.1498 70.5907 52.8962 70.5956C52.5552 70.6021 52.373 70.7554 52.3834 71.1131C52.3928 71.4364 52.5903 71.5158 52.8711 71.577C53.2899 71.6682 54.0296 71.3163 54.0429 72.0126C54.0585 72.8216 53.2772 72.4008 52.8531 72.476C52.1922 72.5933 52.3942 73.0767 52.3504 73.4578C52.3144 73.7717 52.3262 74.1176 51.8958 74.1368C51.4481 74.1569 51.438 73.817 51.4299 73.4151Z" fill="white"/>
<path d="M86.8207 73.8289C85.8798 74.339 85.1152 74.3081 84.5961 73.7567C83.9959 73.1189 84.0045 72.3815 84.336 71.6335C84.6483 70.929 85.2678 70.7958 85.9635 70.851C86.6641 70.9065 87.0084 71.3552 87.1642 71.9757C87.3012 72.5213 87.1402 72.8475 86.4937 72.8205C86.086 72.8035 85.6536 72.7002 85.2212 72.9771C85.3291 73.4899 85.688 73.4797 86.0403 73.3517C86.3717 73.2313 86.6541 72.9191 87.0466 73.1807C87.167 73.4379 87.0068 73.6081 86.8207 73.8289ZM85.5098 72.0536C85.7334 72.028 86.0039 72.1559 86.1569 71.8623C86.0076 71.5658 85.7842 71.449 85.4875 71.6027C85.3162 71.6914 85.1477 71.8365 85.5098 72.0536Z" fill="white"/>
<path d="M56.175 71.6304C55.9337 71.6906 55.7476 71.7482 55.5724 71.8292C55.3083 71.9512 55.0134 72.0952 54.8359 71.7678C54.6954 71.5087 54.9122 71.2801 55.1095 71.1224C55.6271 70.709 56.2284 70.7493 56.7965 70.9445C57.3077 71.1202 57.4775 71.5792 57.4772 72.0986C57.4772 72.1549 57.4802 72.2112 57.4783 72.2673C57.4603 72.8 57.5591 73.3723 57.3954 73.8561C57.1504 74.5803 56.4776 73.9033 55.9793 74.123C55.3241 74.412 54.6452 73.9097 54.6197 73.2851C54.5895 72.5445 55.039 72.2378 55.7303 72.1983C55.9248 72.1872 56.1493 72.2051 56.3048 72.1149C56.5927 71.9477 56.5161 71.7612 56.175 71.6304ZM55.778 72.8932C55.5077 73.1796 55.6145 73.3458 55.9587 73.4005C56.1692 73.4341 56.4053 73.3578 56.4227 73.1346C56.4563 72.7018 56.1064 72.8732 55.778 72.8932Z" fill="white"/>
<path d="M72.3644 71.042C73.8041 70.5685 74.691 71.0324 74.868 72.2973C74.9667 73.0025 74.7176 73.5984 74.1305 73.9743C73.5694 74.3336 72.9244 74.3198 72.3725 73.942C71.757 73.5206 71.5725 72.8684 71.6971 72.1533C71.7698 71.7357 71.9509 71.348 72.3644 71.042ZM73.5507 71.7131C72.8521 71.4979 72.6247 71.8761 72.6175 72.4798C72.6117 72.9622 72.7426 73.4476 73.3406 73.3646C73.9911 73.2743 73.8973 72.6994 73.8591 72.2321C73.8467 72.0803 73.726 71.9374 73.5507 71.7131Z" fill="white"/>
<path d="M94.0812 70.8543C95.5119 70.8182 95.7273 71.0279 95.7293 72.3874C95.7297 72.6697 95.7301 72.9521 95.7309 73.2344C95.7324 73.8053 95.7849 74.3906 94.8706 74.0346C94.6529 73.9499 94.3332 74.1712 94.0585 74.1784C93.4433 74.1943 93.006 73.9015 92.9278 73.2718C92.8441 72.5975 93.2851 72.3173 93.8787 72.2082C94.1937 72.1503 94.5686 72.307 94.8318 71.922C94.6674 71.5561 94.3754 71.5647 94.0761 71.7013C93.7514 71.8496 93.3447 72.194 93.1578 71.6948C92.9878 71.2406 93.4798 71.0511 93.851 70.8994C93.9025 70.8783 93.9609 70.8742 94.0812 70.8543ZM94.6876 72.8613C94.4016 72.8481 94.0575 72.7059 93.9439 73.1269C93.9033 73.2773 94.0422 73.3817 94.1896 73.3925C94.5201 73.4166 94.806 73.3645 94.6876 72.8613Z" fill="white"/>
<path d="M43.3158 59.1681C43.7821 59.1904 44.193 59.0928 44.5402 59.3391C44.9029 59.5965 44.9796 59.9783 44.9093 60.3882C44.8292 60.8547 44.5321 61.1613 44.069 61.204C43.5126 61.2552 42.9458 61.2655 42.3891 61.2223C41.7311 61.1712 41.3688 60.7821 41.4114 60.1009C41.4523 59.4462 41.8537 59.1728 42.4791 59.1709C42.7317 59.1701 42.9844 59.169 43.3158 59.1681Z" fill="white"/>
<path d="M102.566 72.309C103.449 72.1572 103.449 72.1572 103.806 71.8281C103.56 71.5004 103.271 71.5922 102.992 71.7549C102.713 71.9179 102.448 72.0672 102.129 71.7201C102.35 70.8232 103.051 70.8085 103.772 70.8616C104.463 70.9126 104.755 71.331 104.74 71.9975C104.736 72.1664 104.74 72.3355 104.739 72.5045C104.735 74.2335 104.735 74.2342 103.028 74.1825C102.525 74.1673 102.157 73.9313 101.994 73.4559C101.819 72.9432 102.07 72.5906 102.566 72.309ZM102.989 72.9711C102.855 73.2113 102.961 73.355 103.196 73.393C103.469 73.4371 103.703 73.3746 103.735 73.0251C103.561 72.7419 103.314 72.8309 102.989 72.9711Z" fill="white"/>
<path d="M70.9129 73.6548C70.264 74.2952 69.5556 74.3828 68.8591 73.9694C68.1824 73.5677 67.9974 72.8822 68.1414 72.1284C68.3209 71.1888 68.9198 70.7696 69.9139 70.8513C70.733 70.9187 71.2244 71.484 71.2583 72.3961C71.2743 72.827 71.214 73.2383 70.9129 73.6548ZM69.0866 72.1367C69.0285 72.4176 69.0064 72.7003 69.1277 72.9684C69.2895 73.3259 69.5562 73.5084 69.9438 73.3255C70.3116 73.152 70.3247 72.7968 70.315 72.4489C70.306 72.1267 70.2574 71.8152 69.9049 71.6832C69.5497 71.5502 69.3052 71.7061 69.0866 72.1367Z" fill="white"/>
<path d="M99.1573 71.0227C99.3545 71.9226 99.2502 72.7684 99.2675 73.6111C99.2717 73.8115 99.2207 74.1059 99.0165 74.0881C98.302 74.0258 97.5581 74.403 96.8799 74.0169C96.317 73.6965 96.2792 73.1072 96.291 72.5263C96.2985 72.1601 96.2989 71.7937 96.3033 71.4274C96.3071 71.1072 96.409 70.8735 96.7864 70.881C97.1747 70.8887 97.2335 71.1533 97.2377 71.458C97.2436 71.8806 97.2407 72.3034 97.2514 72.7259C97.2601 73.0702 97.3893 73.3617 97.7751 73.3662C98.1548 73.3707 98.3095 73.0883 98.3265 72.7451C98.3474 72.3232 98.3436 71.9 98.3483 71.4774C98.3544 70.9412 98.5998 70.7597 99.1573 71.0227Z" fill="white"/>
<path d="M106.92 70.8507C107.865 70.7962 108.223 71.299 108.273 72.0817C108.306 72.5883 108.285 73.0988 108.278 73.6075C108.275 73.8814 108.203 74.1233 107.863 74.1351C107.491 74.148 107.373 73.9111 107.364 73.5919C107.353 73.1681 107.356 72.744 107.347 72.3201C107.34 71.9899 107.286 71.665 106.864 71.662C106.439 71.659 106.275 71.9513 106.258 72.3314C106.239 72.7548 106.247 73.1793 106.235 73.6031C106.228 73.8751 106.167 74.1212 105.824 74.1337C105.454 74.1471 105.333 73.9165 105.323 73.5937C105.315 73.3112 105.307 73.0283 105.313 72.7459C105.325 72.2105 105.205 71.6168 105.398 71.1542C105.663 70.5167 106.391 71.1403 106.92 70.8507Z" fill="white"/>
<path d="M88.6723 71.6931C88.7569 72.2086 89.1958 72.0516 89.4819 72.169C89.9924 72.3786 90.4134 72.6694 90.3356 73.2744C90.2603 73.8605 89.8095 74.125 89.2577 74.1776C88.5232 74.2474 87.846 74.1687 87.5853 73.3065C88.1718 72.634 88.7778 73.9047 89.3429 73.2399C89.2022 72.8223 88.8053 72.8885 88.5093 72.7749C88.0075 72.5822 87.5607 72.3256 87.6449 71.6884C87.7202 71.1184 88.1443 70.9039 88.6589 70.8375C89.2446 70.7618 89.7963 70.8145 90.1647 71.3624C90.2476 71.4857 90.2676 71.6474 90.143 71.7472C89.9533 71.8993 89.7311 71.9235 89.5106 71.7917C89.2565 71.6398 89.0294 71.342 88.6723 71.6931Z" fill="white"/>
<path d="M58.284 73.11C58.7723 73.1867 59.1554 73.706 59.6532 73.2512C59.4735 72.7937 59.0319 72.8644 58.7212 72.7151C58.2847 72.5052 57.8944 72.2482 57.9769 71.712C58.0667 71.1283 58.4936 70.8693 59.0692 70.8461C59.7087 70.8202 60.3238 70.8414 60.5645 71.5919C60.0505 72.3765 59.4384 71.0815 58.9099 71.7221C59.1372 72.2139 59.6613 72.0653 60.0038 72.269C60.4505 72.5347 60.8025 72.8306 60.6437 73.4116C60.4854 73.991 59.7814 74.3062 58.9404 74.1771C58.4302 74.0987 58.0212 73.8833 57.9786 73.2991C57.9745 73.2422 58.1342 73.1735 58.284 73.11Z" fill="white"/>
<path d="M35.9082 49.9731C36.4289 50.9216 36.1772 51.5678 35.2587 51.684C34.6294 51.7636 33.9446 51.8654 33.484 51.2403C33.2523 50.9258 33.2126 50.5702 33.4266 50.2153C33.8436 49.5241 34.5248 49.6661 35.1606 49.6681C35.4227 49.6689 35.6536 49.7617 35.9082 49.9731Z" fill="white"/>
<path d="M36.9742 59.5835C36.5359 59.5778 36.1608 59.619 35.8113 59.5432C35.2922 59.4306 34.962 59.0636 35.0042 58.5192C35.0453 57.9897 35.3595 57.6462 35.935 57.6276C36.1871 57.6195 36.4399 57.6297 36.692 57.621C37.267 57.601 37.7967 57.6977 37.9151 58.3665C38.0319 59.0266 37.7015 59.4332 36.9742 59.5835Z" fill="white"/>
<path d="M90.6425 71.0077C90.698 70.9339 90.7227 70.9178 90.7389 70.8955C91.5714 69.7489 91.6068 69.7499 92.4496 70.9568C92.5815 71.1457 92.5632 71.3204 92.3962 71.4827C91.7161 72.144 91.7208 72.8108 92.3834 73.4813C92.516 73.6155 92.5422 73.7739 92.4725 73.9436C92.3964 74.1289 92.2271 74.1628 92.0543 74.1622C91.5477 74.1603 91.1023 73.9494 91.0765 73.4324C91.0354 72.611 90.9722 71.8123 90.6425 71.0077Z" fill="white"/>
<path d="M110.353 71.5183C109.828 72.1825 109.769 72.8175 110.342 73.4075C110.519 73.5894 110.668 73.7386 110.523 73.9779C110.383 74.2082 110.132 74.1921 109.91 74.148C109.309 74.028 109.105 73.5941 109.059 73.0366C109.012 72.4628 109.08 71.9091 108.735 71.3357C108.491 70.9313 108.989 70.3737 109.331 70.1101C109.718 69.8119 109.957 70.2034 110.04 70.6218C110.101 70.9305 110.949 70.9106 110.353 71.5183Z" fill="white"/>
<path d="M62.6371 74.1184C61.64 74.1069 61.3755 73.8512 61.3242 72.9504C61.2945 72.4288 61.3109 71.9328 61.0593 71.4078C60.8284 70.9261 61.279 70.4347 61.6426 70.0763C61.775 69.9457 62.1214 69.9819 62.1999 70.2565C62.2917 70.5774 62.4618 70.7656 62.744 70.9475C63.0113 71.1198 62.8814 71.3458 62.647 71.5537C62.0879 72.0495 62.0786 72.9145 62.6352 73.4087C62.9093 73.6521 62.9686 73.8355 62.6371 74.1184Z" fill="white"/>
<path d="M100.706 73.8535C100.178 74.3478 99.916 74.1585 99.8713 73.5742C99.8349 73.0994 99.8551 72.62 99.8552 72.1426C99.8556 70.7615 99.8668 70.7534 101.199 70.8747C101.372 70.8905 101.539 70.8955 101.606 71.0936C101.653 71.2339 101.662 71.4412 101.544 71.4789C100.467 71.8226 100.846 72.7251 100.762 73.4492C100.749 73.5606 100.741 73.6726 100.706 73.8535Z" fill="white"/>
</svg>
