<svg width="12" height="8" viewBox="0 0 12 8" fill="none" xmlns="http://www.w3.org/2000/svg">
<path d="M5.14124 6.8125L0.62561 2.29688C0.470662 2.14193 0.393188 1.95378 0.393188 1.73242C0.393188 1.51107 0.470662 1.32292 0.62561 1.16797L1.38928 0.4375C1.54423 0.282552 1.73238 0.205078 1.95374 0.205078C2.17509 0.205078 2.36324 0.282552 2.51819 0.4375L5.70569 3.625L8.89319 0.4375C9.04814 0.282552 9.23629 0.205078 9.45764 0.205078C9.679 0.205078 9.86715 0.282552 10.0221 0.4375L10.7858 1.16797C10.9407 1.32292 11.0182 1.51107 11.0182 1.73242C11.0182 1.95378 10.9407 2.14193 10.7858 2.29688L6.27014 6.8125C6.11519 6.96745 5.92704 7.04492 5.70569 7.04492C5.48433 7.04492 5.29618 6.96745 5.14124 6.8125Z" fill="#5C5C5B"/>
</svg>
