<svg width="16" height="14" viewBox="0 0 16 14" fill="none" xmlns="http://www.w3.org/2000/svg">
<path d="M11.2045 0.302979C11.7709 0.302979 12.308 0.4104 12.8159 0.625244C13.3237 0.840088 13.7631 1.1355 14.1342 1.51147C14.5053 1.88745 14.8032 2.32935 15.0278 2.83716C15.2426 3.33521 15.35 3.87231 15.35 4.44849C15.35 5.39575 14.9594 6.38696 14.1782 7.42212C13.3969 8.45728 12.5375 9.40698 11.6 10.2712C10.6625 11.1355 9.80316 11.8508 9.02191 12.4172C8.24066 12.9836 7.85004 13.2668 7.85004 13.2668C7.85004 13.2668 7.45941 12.9934 6.67816 12.4465C5.89691 11.8997 5.03754 11.199 4.10004 10.3445C3.16254 9.48999 2.30316 8.54028 1.52191 7.49536C0.740662 6.46021 0.350037 5.44458 0.350037 4.44849C0.350037 3.7356 0.457458 3.12036 0.672302 2.60278C0.896912 2.07544 1.19476 1.64331 1.56586 1.3064C1.93695 0.969482 2.3764 0.718018 2.88422 0.552002C3.38226 0.385986 3.91937 0.302979 4.49554 0.302979C5.1889 0.302979 5.82611 0.459229 6.40717 0.771729C6.98822 1.08423 7.46918 1.49927 7.85004 2.01685C8.2309 1.49927 8.71185 1.08423 9.29291 0.771729C9.87396 0.459229 10.5112 0.302979 11.2045 0.302979Z" fill="#C3C3C3"/>
</svg>
