<svg width="11" height="12" viewBox="0 0 11 12" fill="none" xmlns="http://www.w3.org/2000/svg">
<path d="M0.544556 11.189C0.487264 11.1603 0.433553 11.1245 0.383423 11.0815C0.333293 11.0386 0.293905 10.9813 0.265259 10.9097C0.250936 10.8524 0.240194 10.6304 0.233032 10.2437C0.225871 9.85693 0.22229 8.58219 0.22229 6.41943C0.22229 4.02751 0.225871 2.67399 0.233032 2.35889C0.240194 2.04378 0.279582 1.85042 0.351196 1.77881C0.365519 1.75016 0.390584 1.7251 0.426392 1.70361C0.462199 1.68213 0.494425 1.66423 0.523071 1.6499C0.56604 1.63558 0.619751 1.62484 0.684204 1.61768C0.748657 1.61051 0.931274 1.60693 1.23206 1.60693L1.83362 1.58545V1.28467C1.83362 1.09847 1.84078 0.973145 1.8551 0.908691C1.86943 0.844238 1.90523 0.783366 1.96252 0.726074C2.09143 0.568522 2.25614 0.507649 2.45667 0.543457C2.65719 0.579265 2.79325 0.683105 2.86487 0.85498C2.87919 0.897949 2.88993 0.948079 2.89709 1.00537C2.90426 1.06266 2.90784 1.15576 2.90784 1.28467V1.60693H8.25745V1.28467C8.25745 1.15576 8.26103 1.06266 8.26819 1.00537C8.27535 0.948079 8.28609 0.897949 8.30042 0.85498C8.37203 0.683105 8.5081 0.579265 8.70862 0.543457C8.90914 0.507649 9.07385 0.568522 9.20276 0.726074C9.24573 0.783366 9.27437 0.844238 9.2887 0.908691C9.30302 0.973145 9.31018 1.09847 9.31018 1.28467V1.58545L9.91174 1.60693C10.2555 1.60693 10.4632 1.61409 10.5348 1.62842C10.6064 1.64274 10.678 1.68571 10.7496 1.75732C10.7783 1.78597 10.8033 1.81462 10.8248 1.84326C10.8463 1.87191 10.8642 1.90771 10.8785 1.95068C10.9072 2.00798 10.9215 2.22282 10.9215 2.59521C10.9215 2.96761 10.9215 4.25667 10.9215 6.4624C10.9215 8.58219 10.9179 9.84619 10.9108 10.2544C10.9036 10.6626 10.8929 10.8882 10.8785 10.9312C10.8499 10.9884 10.8069 11.0422 10.7496 11.0923C10.6923 11.1424 10.6351 11.1746 10.5778 11.189C10.5205 11.2176 10.277 11.2319 9.84729 11.2319C9.4176 11.2319 7.98531 11.2319 5.55042 11.2319C3.15849 11.2319 1.74052 11.2319 1.29651 11.2319C0.852498 11.2319 0.601847 11.2176 0.544556 11.189ZM9.86877 6.95654V3.75537H1.29651V10.1577H9.86877V6.95654ZM2.90784 8.03076V7.49365H3.96057V8.56787H2.90784V8.03076ZM5.03479 8.03076V7.49365H6.13049V8.56787H5.03479V8.03076ZM7.18323 8.03076V7.49365H8.25745V8.56787H7.18323V8.03076ZM2.90784 5.88232V5.34521H3.96057V6.41943H2.90784V5.88232ZM5.03479 6.39795C5.03479 6.39795 5.03479 6.34424 5.03479 6.23682C5.03479 6.12939 5.03479 6.00407 5.03479 5.86084V5.34521H6.10901V6.41943H5.5719C5.37138 6.41943 5.23531 6.41943 5.1637 6.41943C5.09208 6.41943 5.04911 6.41227 5.03479 6.39795ZM7.18323 5.88232V5.34521H8.25745V6.41943H7.18323V5.88232Z" fill="#C9C9C9"/>
</svg>
