<svg width="13" height="14" viewBox="0 0 13 14" fill="none" xmlns="http://www.w3.org/2000/svg">
<path d="M6.5 8.15186C5.52669 8.15186 4.66341 8.26611 3.91016 8.49463C3.1569 8.72314 2.52214 9.05745 2.00586 9.49756C1.48958 9.93766 1.10026 10.4793 0.837891 11.1226C0.575521 11.7743 0.444336 12.519 0.444336 13.3569C0.444336 13.4839 0.490885 13.5939 0.583984 13.687C0.677083 13.7801 0.787109 13.8267 0.914062 13.8267H12.0859C12.2129 13.8267 12.3229 13.7801 12.416 13.687C12.5091 13.5939 12.5557 13.4839 12.5557 13.3569C12.5557 12.519 12.4245 11.7743 12.1621 11.1226C11.8997 10.4793 11.5104 9.93766 10.9941 9.49756C10.4779 9.05745 9.8431 8.72314 9.08984 8.49463C8.33659 8.26611 7.47331 8.15186 6.5 8.15186ZM1.40918 12.8872C1.4515 12.2524 1.59115 11.7023 1.82812 11.2368C2.0651 10.7629 2.3973 10.3672 2.82471 10.0498C3.25212 9.73242 3.77051 9.49756 4.37988 9.34521C4.99772 9.18441 5.70443 9.104 6.5 9.104C7.29557 9.104 8.00228 9.18441 8.62012 9.34521C9.22949 9.49756 9.74788 9.73242 10.1753 10.0498C10.6027 10.3672 10.9349 10.7629 11.1719 11.2368C11.4089 11.7023 11.5485 12.2524 11.5908 12.8872H1.40918ZM6.5 0.82666C6.05143 0.82666 5.63672 0.911296 5.25586 1.08057C4.86654 1.24137 4.53223 1.46566 4.25293 1.75342C3.97363 2.04118 3.75358 2.37972 3.59277 2.76904C3.43197 3.15837 3.35156 3.58154 3.35156 4.03857C3.35156 4.51253 3.4362 4.95687 3.60547 5.37158C3.76628 5.7863 3.98844 6.14811 4.27197 6.45703C4.5555 6.76595 4.89193 7.00928 5.28125 7.18701C5.66211 7.36475 6.06836 7.45361 6.5 7.45361C6.93164 7.45361 7.33789 7.36475 7.71875 7.18701C8.10807 7.00928 8.4445 6.76595 8.72803 6.45703C9.01156 6.14811 9.23372 5.7863 9.39453 5.37158C9.5638 4.95687 9.64844 4.51253 9.64844 4.03857C9.64844 3.58154 9.56803 3.15837 9.40723 2.76904C9.24642 2.37972 9.02637 2.04118 8.74707 1.75342C8.46777 1.46566 8.13346 1.24137 7.74414 1.08057C7.36328 0.911296 6.94857 0.82666 6.5 0.82666ZM6.5 6.51416C5.89062 6.51416 5.37223 6.27295 4.94482 5.79053C4.51742 5.30811 4.30371 4.72412 4.30371 4.03857C4.30371 3.38688 4.51107 2.84733 4.92578 2.41992C5.34049 1.99251 5.86523 1.77881 6.5 1.77881C7.1263 1.77881 7.64893 1.99463 8.06787 2.42627C8.48682 2.85791 8.69629 3.39534 8.69629 4.03857C8.69629 4.72412 8.48258 5.30811 8.05518 5.79053C7.62777 6.27295 7.10938 6.51416 6.5 6.51416Z" fill="#C9C9C9"/>
</svg>
