<svg width="10" height="12" viewBox="0 0 10 12" fill="none" xmlns="http://www.w3.org/2000/svg">
<path d="M2.64453 0.263023C2.64453 0.263023 2.61328 0.348961 2.55078 0.520836C2.4961 0.684898 2.41992 0.905602 2.32227 1.18295C2.22461 1.46029 2.10938 1.78646 1.97656 2.16146C1.85156 2.52865 1.71485 2.91927 1.56641 3.33334C1.41797 3.75521 1.28125 4.14974 1.15625 4.51693C1.02344 4.89193 0.908205 5.2181 0.810549 5.49545C0.712893 5.77279 0.636721 5.99349 0.582033 6.15755C0.519533 6.32162 0.488283 6.40755 0.488283 6.41537C0.480471 6.43099 0.560549 6.44076 0.728518 6.44466C0.896486 6.44857 1.39453 6.45052 2.22266 6.45052C2.91016 6.45052 3.37305 6.45248 3.61133 6.45638C3.84961 6.46029 3.96875 6.47005 3.96875 6.48568C3.96875 6.49349 3.89453 6.7767 3.7461 7.33529C3.59766 7.89388 3.41797 8.5599 3.20703 9.33334C2.9961 10.1146 2.81641 10.7826 2.66797 11.3372C2.51953 11.8919 2.44531 12.1693 2.44531 12.1693C2.45313 12.1771 2.54688 12.0716 2.72656 11.8529C2.91406 11.6419 3.16797 11.3529 3.48828 10.9857C3.8086 10.6185 4.1836 10.1888 4.61328 9.69662C5.04297 9.19662 5.5 8.66927 5.98438 8.11459L9.51172 4.02474H7.47266C6.91016 4.02474 6.42774 4.02279 6.02539 4.01888C5.62305 4.01498 5.42188 4.01302 5.42188 4.01302C5.42188 4.00521 5.49414 3.8763 5.63867 3.6263C5.78321 3.3763 5.95703 3.07552 6.16016 2.72396C6.36328 2.3724 6.57031 2.01107 6.78125 1.63998C6.99219 1.26888 7.14844 1.0013 7.25 0.837242L7.60156 0.216148H5.12891C3.96485 0.216148 3.26172 0.218102 3.01953 0.222008C2.77735 0.225914 2.65235 0.239586 2.64453 0.263023Z" fill="#222222"/>
</svg>
