<svg width="20" height="17" viewBox="0 0 20 17" fill="none" xmlns="http://www.w3.org/2000/svg">
<path d="M19.4141 6.03638H16.1523L13.8086 2.91138C13.8997 2.76815 13.9714 2.61515 14.0234 2.45239C14.0755 2.28963 14.1016 2.11711 14.1016 1.93481C14.1016 1.45304 13.929 1.03963 13.584 0.69458C13.2389 0.349527 12.8255 0.177002 12.3438 0.177002C11.862 0.177002 11.4486 0.349527 11.1035 0.69458C10.7585 1.03963 10.5859 1.45304 10.5859 1.93481C10.5859 2.42961 10.7585 2.84627 11.1035 3.18481C11.4486 3.52336 11.862 3.69263 12.3438 3.69263C12.4349 3.69263 12.5228 3.68612 12.6074 3.6731C12.6921 3.66008 12.7799 3.64054 12.8711 3.6145L14.6875 6.03638H5.3125L7.12891 3.6145C7.22005 3.64054 7.30794 3.66008 7.39258 3.6731C7.47721 3.68612 7.5651 3.69263 7.65625 3.69263C8.13802 3.69263 8.55143 3.52336 8.89648 3.18481C9.24154 2.84627 9.41406 2.42961 9.41406 1.93481C9.41406 1.45304 9.24154 1.03963 8.89648 0.69458C8.55143 0.349527 8.13802 0.177002 7.65625 0.177002C7.17448 0.177002 6.76107 0.349527 6.41602 0.69458C6.07096 1.03963 5.89844 1.45304 5.89844 1.93481C5.89844 2.11711 5.92448 2.28963 5.97656 2.45239C6.02865 2.61515 6.10026 2.76815 6.19141 2.91138L3.84766 6.03638H0.585938C0.429688 6.03638 0.292969 6.09497 0.175781 6.21216C0.0585938 6.32935 0 6.46606 0 6.62231C0 6.79158 0.0585938 6.93156 0.175781 7.04224C0.292969 7.15291 0.429688 7.20825 0.585938 7.20825H1.34766L1.64062 8.38013H18.3594L18.6523 7.20825H19.4141C19.5703 7.20825 19.707 7.15291 19.8242 7.04224C19.9414 6.93156 20 6.79158 20 6.62231C20 6.46606 19.9414 6.32935 19.8242 6.21216C19.707 6.09497 19.5703 6.03638 19.4141 6.03638ZM11.7578 1.93481C11.7578 1.77856 11.8164 1.64185 11.9336 1.52466C12.0508 1.40747 12.1875 1.34888 12.3438 1.34888C12.5 1.34888 12.6367 1.40747 12.7539 1.52466C12.8711 1.64185 12.9297 1.77856 12.9297 1.93481C12.9297 2.10408 12.8711 2.24406 12.7539 2.35474C12.6367 2.46541 12.5 2.52075 12.3438 2.52075C12.1875 2.52075 12.0508 2.46541 11.9336 2.35474C11.8164 2.24406 11.7578 2.10408 11.7578 1.93481ZM7.65625 1.34888C7.8125 1.34888 7.94922 1.40747 8.06641 1.52466C8.18359 1.64185 8.24219 1.77856 8.24219 1.93481C8.24219 2.10408 8.18359 2.24406 8.06641 2.35474C7.94922 2.46541 7.8125 2.52075 7.65625 2.52075C7.5 2.52075 7.36328 2.46541 7.24609 2.35474C7.12891 2.24406 7.07031 2.10408 7.07031 1.93481C7.07031 1.77856 7.12891 1.64185 7.24609 1.52466C7.36328 1.40747 7.5 1.34888 7.65625 1.34888ZM3.35938 15.2551C3.45052 15.6458 3.6556 15.9648 3.97461 16.2122C4.29362 16.4596 4.65495 16.5833 5.05859 16.5833H14.9414C15.3451 16.5833 15.7064 16.4596 16.0254 16.2122C16.3444 15.9648 16.5495 15.6458 16.6406 15.2551L18.0664 9.552H1.93359L3.35938 15.2551ZM12.9297 11.3098C12.9297 11.1536 12.9883 11.0168 13.1055 10.8997C13.2227 10.7825 13.3594 10.7239 13.5156 10.7239C13.6719 10.7239 13.8086 10.7825 13.9258 10.8997C14.043 11.0168 14.1016 11.1536 14.1016 11.3098V14.8254C14.1016 14.9947 14.043 15.1347 13.9258 15.2454C13.8086 15.356 13.6719 15.4114 13.5156 15.4114C13.3594 15.4114 13.2227 15.356 13.1055 15.2454C12.9883 15.1347 12.9297 14.9947 12.9297 14.8254V11.3098ZM9.41406 11.3098C9.41406 11.1536 9.47266 11.0168 9.58984 10.8997C9.70703 10.7825 9.84375 10.7239 10 10.7239C10.1562 10.7239 10.293 10.7825 10.4102 10.8997C10.5273 11.0168 10.5859 11.1536 10.5859 11.3098V14.8254C10.5859 14.9947 10.5273 15.1347 10.4102 15.2454C10.293 15.356 10.1562 15.4114 10 15.4114C9.84375 15.4114 9.70703 15.356 9.58984 15.2454C9.47266 15.1347 9.41406 14.9947 9.41406 14.8254V11.3098ZM5.89844 11.3098C5.89844 11.1536 5.95703 11.0168 6.07422 10.8997C6.19141 10.7825 6.32812 10.7239 6.48438 10.7239C6.64062 10.7239 6.77734 10.7825 6.89453 10.8997C7.01172 11.0168 7.07031 11.1536 7.07031 11.3098V14.8254C7.07031 14.9947 7.01172 15.1347 6.89453 15.2454C6.77734 15.356 6.64062 15.4114 6.48438 15.4114C6.32812 15.4114 6.19141 15.356 6.07422 15.2454C5.95703 15.1347 5.89844 14.9947 5.89844 14.8254V11.3098Z" fill="black"/>
</svg>
