<svg width="12" height="8" viewBox="0 0 12 8" fill="none" xmlns="http://www.w3.org/2000/svg">
<path d="M8.31433 7.48457C8.29089 7.47285 8.25867 7.44941 8.21765 7.41426C8.17664 7.3791 8.13269 7.33809 8.08582 7.29121C8.00378 7.20918 7.94812 7.12715 7.91882 7.04512C7.88953 6.96309 7.88074 6.85762 7.89246 6.72871C7.90417 6.58809 7.94519 6.46504 8.0155 6.35957C8.08582 6.2541 8.30847 5.99629 8.68347 5.58613L9.35144 4.84785L1.17761 4.83027L1.07214 4.77754C0.990112 4.74238 0.922729 4.69844 0.869995 4.6457C0.817261 4.59297 0.767456 4.52559 0.720581 4.44355C0.685425 4.37324 0.664917 4.32051 0.659058 4.28535C0.653198 4.2502 0.650269 4.18574 0.650269 4.09199C0.650269 3.99824 0.653198 3.93379 0.659058 3.89863C0.664917 3.86348 0.679565 3.8166 0.703003 3.75801C0.749878 3.67598 0.793823 3.61152 0.834839 3.56465C0.875854 3.51777 0.937378 3.4709 1.01941 3.42402L1.14246 3.33613H9.35144L8.68347 2.58027C8.30847 2.17012 8.08582 1.91523 8.0155 1.81562C7.94519 1.71602 7.90417 1.59004 7.89246 1.4377C7.88074 1.32051 7.88953 1.2209 7.91882 1.13887C7.94812 1.05684 8.00378 0.968945 8.08582 0.875195C8.16785 0.781445 8.24695 0.719922 8.32312 0.690625C8.39929 0.661328 8.49597 0.646679 8.61316 0.646679C8.75378 0.658398 8.88855 0.722851 9.01746 0.840039C9.14636 0.957226 9.56238 1.4084 10.2655 2.19355C11.0038 2.99043 11.4286 3.46211 11.5399 3.60859C11.6512 3.75508 11.7069 3.91621 11.7069 4.09199C11.7069 4.25605 11.6542 4.4084 11.5487 4.54902C11.4432 4.68965 11.0214 5.16426 10.2831 5.97285C9.76746 6.53535 9.41296 6.91621 9.2196 7.11543C9.02625 7.31465 8.91199 7.42598 8.87683 7.44941C8.80652 7.48457 8.71277 7.50508 8.59558 7.51094C8.47839 7.5168 8.38464 7.50801 8.31433 7.48457Z" fill="#222222"/>
</svg>
